<svg xmlns="http://www.w3.org/2000/svg" fill="none" stroke="#3b82f6" stroke-width="2" viewBox="0 0 24 24"><path stroke-linecap="round" stroke-linejoin="round" d="M19.428 15.428a2 2 0 00-1.022-.547l-2.387-.477a6 6 0 00-3.86.517l-.642.257a6 6 0 01-3.86.517l-2.387-.477a2 2 0 00-1.022.547l1.166 1.166a2 2 0 002.828 0l.144-.144a1 1 0 011.414 0l.144.144a2 2 0 002.828 0l.144-.144a1 1 0 011.414 0l.144.144a2 2 0 002.828 0l1.166-1.166z"/><path stroke-linecap="round" stroke-linejoin="round" d="M12 14c2.761 0 5-2.239 5-5s-2.239-5-5-5-5 2.239-5 5 2.239 5 5 5z"/></svg>
